# xmcd CD database file
#
# Track frame offsets:
#	150
#	15768
#	30702
#	45898
#	60166
#	73680
#	89283
#	104460
#	119087
#	133470
#	148282
#	163725
#	180250
#	195272
#	209867
#
# Disc length: 3004 seconds
#
# Revision: 2
# Processed by: cddbd v1.5.2PL0 Copyright (c) Steve Scherf et al.
# Submitted via: CDex 1.51
#
DISCID=d20bba0f
DTITLE=Louis Armstrong - Vol.02 - Blue Turning Grey Over You
DYEAR=1900
DGENRE=Jazz
TTITLE0=Blue Turning Grey Over You
TTITLE1=Dear Old Southland
TTITLE2=My Sweet
TTITLE3=I Can't Believe That You're In Love With Me
TTITLE4=Indian Cradle Song
TTITLE5=Exactly Like You
TTITLE6=Dinah
TTITLE7=Tiger Rag
TTITLE8=I'm A Ding Dong Daddy  (Froam Dumas)
TTITLE9=I'm In The Market For You
TTITLE10=Confessin'  (That I Love You)
TTITLE11=If I Could Be With You One Hour Tonight
TTITLE12=Body And Soul
TTITLE13=Memories Of You
TTITLE14=You're Lucky To Me
EXTD=
EXTT0=
EXTT1=
EXTT2=
EXTT3=
EXTT4=
EXTT5=
EXTT6=
EXTT7=
EXTT8=
EXTT9=
EXTT10=
EXTT11=
EXTT12=
EXTT13=
EXTT14=
PLAYORDER=
